<?xml version="1.0" standalone="no"?>
<!DOCTYPE svg PUBLIC "-//W3C//DTD SVG 20010904//EN"
 "http://www.w3.org/TR/2001/REC-SVG-20010904/DTD/svg10.dtd">
<svg version="1.0" xmlns="http://www.w3.org/2000/svg"
 width="1024.000000pt" height="1024.000000pt" viewBox="0 0 1024.000000 1024.000000"
 preserveAspectRatio="xMidYMid meet">

<g transform="translate(0.000000,1024.000000) scale(0.100000,-0.100000)"
fill="#000000" stroke="none">
<path d="M3121 6895 c-351 -79 -607 -308 -710 -633 -69 -218 -66 -403 12 -610
31 -85 34 -88 96 -128 95 -63 157 -129 199 -213 29 -59 46 -80 80 -102 35 -22
49 -26 69 -18 13 5 42 9 63 9 52 0 57 13 13 34 -122 58 -255 168 -328 271 -46
65 -105 176 -105 198 0 8 20 18 48 25 149 36 395 92 397 90 1 -2 16 -23 33
-49 33 -50 91 -94 149 -115 59 -21 173 -18 238 7 103 38 187 145 202 256 3 24
6 43 7 43 1 0 107 18 236 39 129 21 253 41 274 45 l39 5 -6 -107 c-9 -165 -52
-300 -137 -428 l-20 -31 36 -28 37 -28 19 23 c69 85 139 270 159 415 61 461
-237 899 -691 1016 -110 28 -316 35 -409 14z m139 -139 c0 -11 -19 -15 -25 -6
-3 5 1 10 9 10 9 0 16 -2 16 -4z m150 -16 c0 -5 -2 -10 -4 -10 -3 0 -8 5 -11
10 -3 6 -1 10 4 10 6 0 11 -4 11 -10z m285 -70 c3 -5 -1 -10 -10 -10 -9 0 -13
5 -10 10 3 6 8 10 10 10 2 0 7 -4 10 -10z m-270 -10 c-3 -5 -13 -10 -21 -10
-8 0 -14 5 -14 10 0 6 9 10 21 10 11 0 17 -4 14 -10z m-170 -25 c-26 -11 -27
-14 -10 -18 11 -2 4 -2 -16 0 -21 3 -40 0 -43 -6 -5 -7 -1 -8 10 -4 11 4 15 2
11 -4 -4 -6 -23 -14 -42 -17 -20 -4 -33 -11 -31 -15 6 -9 -36 -31 -58 -31 -19
0 -104 -39 -111 -50 -8 -13 -7 -13 66 11 75 24 158 28 173 7 6 -7 35 -26 65
-42 73 -38 81 -47 81 -98 0 -54 -17 -80 -46 -72 -19 5 -21 11 -17 43 4 27 0
43 -16 61 -17 21 -20 22 -21 7 0 -10 -4 -15 -10 -12 -6 4 -10 -5 -10 -19 0
-14 -4 -26 -10 -26 -5 0 -10 -7 -10 -15 0 -8 -7 -15 -15 -15 -7 0 -18 -6 -22
-14 -4 -7 -27 -23 -50 -35 -23 -12 -58 -35 -77 -51 -31 -28 -39 -30 -111 -30
-78 0 -131 16 -156 46 -9 11 -9 18 -1 26 9 9 12 8 12 -2 0 -13 2 -13 10 0 8
12 11 12 27 -2 10 -8 34 -18 53 -22 l35 -6 -25 20 c-14 11 -31 20 -37 20 -7 0
-13 5 -13 11 0 5 6 7 13 4 6 -4 1 3 -13 15 l-25 22 -6 -23 c-8 -29 -10 -26
-15 28 -3 34 -1 41 11 37 8 -4 15 -1 15 5 0 6 -4 11 -10 11 -5 0 -10 5 -10 11
0 5 5 7 10 4 6 -3 14 4 19 17 14 37 86 96 156 128 108 49 136 60 162 60 13 0
22 4 19 9 -7 10 67 39 99 39 15 0 13 -3 -10 -13z m65 5 c-8 -5 -19 -10 -25
-10 -5 0 -3 5 5 10 8 5 20 10 25 10 6 0 3 -5 -5 -10z m-251 -14 c-15 -13 -69
-35 -69 -27 0 5 12 14 28 19 28 11 48 15 41 8z m551 -26 c0 -5 -7 -10 -15 -10
-8 0 -15 5 -15 10 0 6 7 10 15 10 8 0 15 -4 15 -10z m-879 -63 l-23 -22 17 28
c10 15 20 25 23 22 3 -3 -5 -16 -17 -28z m-40 -80 c-8 -8 -11 -7 -11 4 0 20
13 34 18 19 3 -7 -1 -17 -7 -23z m639 13 c0 -5 -2 -10 -4 -10 -3 0 -8 5 -11
10 -3 6 -1 10 4 10 6 0 11 -4 11 -10z m-635 -160 c3 -5 1 -10 -4 -10 -6 0 -11
5 -11 10 0 6 2 10 4 10 3 0 8 -4 11 -10z m727 -22 c-7 -7 -12 -8 -12 -2 0 14
12 26 19 19 2 -3 -1 -11 -7 -17z m568 -14 c0 -8 -5 -12 -10 -9 -6 4 -8 11 -5
16 9 14 15 11 15 -7z m-683 -109 c103 -31 174 -155 143 -251 -20 -65 -58 -111
-113 -139 -87 -43 -173 -29 -241 39 -115 115 -66 309 92 356 41 12 63 11 119
-5z m-347 -35 c0 -5 -17 -9 -37 -9 -38 1 -38 1 -8 9 43 11 45 11 45 0z m-220
-41 c0 -5 -7 -9 -15 -9 -15 0 -20 12 -9 23 8 8 24 -1 24 -14z m-120 -16 c0 -5
-5 -15 -10 -23 -8 -12 -10 -11 -10 8 0 12 5 22 10 22 6 0 10 -3 10 -7z m310
-8 c0 -8 -4 -15 -10 -15 -5 0 -10 4 -10 9 0 5 -8 12 -17 14 -11 3 -7 5 10 6
18 1 27 -4 27 -14z m-335 -105 c3 -5 1 -10 -4 -10 -6 0 -11 5 -11 10 0 6 2 10
4 10 3 0 8 -4 11 -10z"/>
<path d="M2930 6220 c0 -5 5 -10 10 -10 6 0 10 5 10 10 0 6 -4 10 -10 10 -5 0
-10 -4 -10 -10z"/>
<path d="M3182 6090 c-93 -57 -95 -186 -3 -247 127 -85 280 83 190 209 -42 58
-125 75 -187 38z m139 -23 c72 -49 73 -155 0 -204 -115 -77 -253 72 -164 177
46 55 108 65 164 27z"/>
<path d="M6269 6760 c-220 -83 -809 -377 -809 -405 0 -6 43 -77 95 -159 52
-81 95 -151 95 -155 0 -4 -36 -22 -80 -40 -44 -18 -80 -36 -80 -40 0 -5 23
-39 50 -77 28 -38 50 -71 50 -74 0 -3 -88 -49 -195 -103 -207 -103 -200 -96
-167 -145 11 -17 45 -2 105 46 21 17 52 34 70 38 17 3 50 15 73 24 24 11 45
15 51 9 5 -5 54 2 118 16 60 14 114 25 118 25 9 0 4 29 -9 64 -4 11 3 19 22
27 354 139 562 190 694 168 129 -21 152 -96 70 -232 -22 -36 -40 -68 -40 -70
0 -5 89 8 94 14 2 2 36 47 76 99 111 146 141 215 116 273 -40 97 -245 92 -576
-15 -69 -22 -158 -53 -198 -69 -40 -16 -76 -29 -81 -29 -8 0 -51 136 -51 163
0 15 93 41 320 88 52 11 100 25 106 32 7 6 24 75 38 152 15 77 37 189 50 248
l24 108 -29 -6 c-27 -6 -29 -5 -29 24 0 17 -3 31 -7 30 -5 0 -42 -13 -84 -29z
m76 -17 c-3 -16 -19 -109 -36 -208 -16 -99 -33 -195 -36 -213 -4 -22 -12 -34
-27 -37 -11 -3 -77 -16 -146 -31 -69 -14 -160 -34 -203 -46 -71 -18 -77 -22
-71 -41 4 -12 24 -66 44 -122 l37 -100 -103 -24 c-102 -24 -104 -25 -104 -53
0 -32 -4 -33 -42 -14 -30 16 -42 8 -31 -19 4 -13 2 -16 -8 -13 -18 6 -110 119
-106 131 1 5 37 23 79 40 42 18 77 37 77 42 1 6 -24 51 -56 100 -90 143 -133
214 -133 219 0 17 539 289 730 370 129 54 141 56 135 19z m338 -653 c16 0 38
-10 52 -24 20 -20 22 -29 15 -60 -4 -20 -23 -61 -41 -91 -39 -64 -105 -148
-95 -120 56 156 -63 254 -275 225 -41 -5 -87 -12 -104 -15 -40 -6 69 30 170
56 88 23 199 39 230 33 11 -2 33 -4 48 -4z m-933 -210 c-19 -13 -30 -13 -30 0
0 6 10 10 23 10 18 0 19 -2 7 -10z"/>
<path d="M4265 6305 c58 -174 68 -355 30 -535 -7 -36 -13 -66 -11 -67 1 -1 16
16 33 38 26 34 33 53 38 112 11 122 -33 363 -81 446 -9 15 -12 18 -9 6z"/>
<path d="M7695 6290 c-90 -14 -162 -49 -224 -105 l-58 -54 -34 35 c-67 70
-169 111 -291 119 -38 3 -68 2 -68 -1 0 -2 11 -26 25 -53 14 -28 31 -90 40
-145 8 -54 24 -115 35 -136 37 -72 120 -120 209 -120 21 0 34 -7 41 -21 16
-29 126 -78 205 -92 76 -13 167 -1 232 30 39 19 41 19 30 2 -6 -10 -9 -20 -6
-23 3 -3 72 9 155 27 138 29 163 32 344 32 161 0 205 -3 255 -18 247 -76 279
-275 88 -544 -24 -35 -47 -63 -51 -63 -4 0 -31 22 -61 48 l-54 48 50 69 c27
39 60 87 72 108 23 37 23 39 5 60 -133 160 -241 217 -413 217 -150 0 -261 -43
-367 -142 l-64 -60 0 45 c0 24 -6 49 -12 55 -20 15 -146 50 -210 57 -116 13
-273 -26 -367 -90 l-49 -34 -21 23 c-77 81 -219 107 -299 53 l-42 -27 -6 25
c-3 14 -13 25 -22 25 -8 0 -97 -16 -196 -36 -152 -31 -185 -41 -208 -62 -18
-16 -28 -36 -28 -54 0 -15 -2 -28 -3 -28 -2 0 -30 9 -63 21 -129 46 -330 17
-445 -66 -28 -20 -53 -34 -56 -32 -2 3 7 51 21 108 27 110 31 135 19 142 -5 3
-100 -12 -212 -33 -173 -32 -206 -41 -226 -61 -17 -18 -27 -54 -45 -154 -13
-71 -26 -133 -30 -138 -3 -4 -26 41 -50 100 -37 92 -86 201 -95 211 -1 2 -51
-8 -111 -22 -60 -13 -156 -34 -214 -46 -112 -23 -140 -41 -140 -87 0 -21 -3
-24 -22 -19 -13 4 -44 9 -70 13 -27 3 -48 9 -48 12 0 3 33 23 73 44 81 42 170
113 128 101 -17 -4 -22 -3 -19 7 3 8 15 14 27 14 12 0 27 8 32 17 8 14 -10 43
-92 149 -57 72 -109 134 -118 137 -9 3 -32 -14 -65 -49 -86 -94 -348 -402
-353 -416 -3 -8 10 -31 31 -52 l36 -37 -51 -38 c-28 -21 -54 -34 -58 -29 -9
13 -209 193 -265 238 l-48 39 -27 -30 c-14 -17 -48 -59 -76 -95 l-50 -64 -5
125 -5 125 -25 -1 c-49 -2 -514 -171 -527 -191 -10 -15 -11 -40 -3 -114 5 -52
10 -111 10 -131 l0 -37 -88 1 c-102 1 -184 -19 -255 -63 -26 -16 -49 -29 -51
-29 -2 0 -5 40 -8 89 -3 74 -9 99 -36 154 -56 114 -184 208 -328 243 -84 20
-300 23 -394 5 -283 -55 -685 -270 -654 -351 3 -8 56 -104 117 -212 68 -119
118 -198 127 -198 8 0 35 9 59 20 24 11 45 19 46 18 3 -4 169 -384 299 -688
82 -191 105 -236 122 -238 23 -3 374 119 411 143 50 33 49 45 -17 284 -34 123
-60 224 -58 225 35 25 67 46 71 46 2 0 7 -27 10 -61 7 -78 55 -177 114 -237
53 -52 147 -98 233 -114 123 -21 290 31 388 122 24 22 45 40 47 40 3 0 5 -18
5 -40 0 -22 -5 -40 -11 -40 -5 0 -78 -66 -161 -147 -153 -151 -249 -267 -294
-354 -22 -45 -27 -49 -59 -49 -42 0 -94 -20 -114 -43 -19 -23 1 -21 28 2 15
14 45 22 90 27 l67 6 45 76 c33 58 89 122 226 262 172 177 182 185 192 163 7
-14 19 -23 34 -23 50 0 373 62 394 76 30 19 37 52 29 141 -6 60 -4 74 6 70 7
-3 126 -60 265 -126 148 -72 257 -119 267 -115 26 10 54 66 61 124 l7 56 101
0 c186 0 344 63 473 188 l76 73 10 -26 c6 -14 34 -93 64 -175 29 -82 58 -154
63 -159 6 -6 74 2 184 21 224 39 217 33 264 219 19 76 39 155 44 176 l10 39
28 -44 c99 -154 284 -236 470 -207 99 15 184 47 270 103 38 24 72 42 75 39 3
-4 6 -20 6 -38 0 -17 6 -40 14 -50 14 -19 17 -19 202 4 197 24 208 26 238 60
19 21 19 29 6 236 -7 119 -11 218 -8 221 3 2 23 -5 43 -18 l38 -22 29 34 c15
19 28 38 28 42 0 15 24 8 46 -13 23 -21 23 -22 5 -58 -10 -20 -40 -100 -67
-179 -55 -166 -58 -155 57 -201 221 -87 408 -98 551 -34 44 19 76 45 122 95
l63 69 49 -30 c50 -32 70 -28 58 12 -12 38 33 -1 50 -43 13 -33 21 -40 43 -40
54 0 57 -14 10 -53 -25 -20 -46 -34 -49 -32 -2 2 -5 -7 -6 -21 -2 -21 1 -24
22 -18 22 5 24 3 21 -23 -17 -138 -18 -133 9 -133 14 0 28 5 31 10 4 6 11 8
16 5 5 -4 9 1 9 11 0 15 -2 15 -25 0 -13 -9 -27 -16 -30 -16 -8 0 -6 63 3 75
4 6 50 39 102 74 52 35 106 74 120 87 14 13 57 33 95 44 80 25 163 68 217 115
56 48 168 186 168 208 0 10 43 65 96 120 312 331 382 559 216 709 -116 105
-384 122 -752 48 -128 -26 -363 -86 -414 -106 -13 -5 -9 5 16 38 19 25 54 92
78 149 37 89 53 113 106 166 l63 61 -87 35 c-132 53 -267 74 -367 57z m321
-54 l112 -38 -62 -61 c-48 -49 -67 -78 -90 -135 -19 -50 -35 -76 -50 -82 -39
-15 -215 -22 -343 -15 l-127 7 38 32 c56 45 116 79 116 66 0 -12 106 -64 153
-76 41 -10 33 13 -10 27 -21 6 -60 23 -88 37 l-49 25 64 33 c54 28 142 59 253
90 9 3 15 9 12 14 -9 15 -248 -63 -279 -91 -31 -28 -28 11 6 91 10 25 14 40 8
34 -6 -6 -24 -42 -39 -80 -26 -65 -31 -71 -99 -112 -39 -23 -91 -65 -115 -92
-24 -27 -47 -46 -51 -43 -13 13 -5 104 15 168 32 104 125 193 242 231 28 9 80
13 157 11 102 -3 127 -7 226 -41z m-820 20 c66 -17 150 -63 175 -94 20 -26 26
-62 9 -62 -16 0 -51 -40 -45 -50 3 -6 -1 -7 -9 -4 -18 7 -19 10 -16 85 1 32
-3 60 -9 63 -7 5 -11 -6 -12 -31 0 -21 -4 -47 -8 -57 -7 -18 -9 -17 -28 7 -11
14 -35 38 -54 53 -27 23 -24 18 12 -22 53 -57 86 -112 66 -110 -7 0 -13 -3
-14 -8 -2 -14 -26 -26 -53 -26 -32 -1 -58 -20 -54 -43 1 -9 -2 -15 -7 -11 -19
12 -38 64 -54 150 -9 49 -25 108 -35 132 l-19 42 52 0 c29 0 75 -6 103 -14z
m1605 -366 c53 -5 116 -17 140 -26 156 -60 198 -201 111 -374 l-28 -55 -69 3
c-39 2 -81 -1 -95 -6 l-25 -10 0 92 c0 74 -4 98 -22 132 -68 127 -214 184
-469 184 -70 0 -125 2 -123 4 7 7 262 48 349 56 121 10 125 10 231 0z m-4261
-74 c0 -3 -4 -8 -10 -11 -5 -3 -10 -1 -10 4 0 6 5 11 10 11 6 0 10 -2 10 -4z
m79 -125 c28 -33 51 -64 51 -69 0 -6 -35 -31 -77 -58 -43 -26 -111 -70 -151
-97 l-73 -50 -26 26 -26 26 95 108 c52 59 105 123 118 141 13 17 27 32 30 32
4 0 30 -27 59 -59z m3761 -113 c30 -15 75 -47 99 -72 l44 -45 -28 -38 c-45
-60 -122 -150 -224 -261 -52 -56 -91 -105 -88 -108 3 -3 23 -8 45 -11 50 -7
141 32 193 83 l36 35 79 -75 79 -76 -57 -53 c-96 -89 -219 -137 -353 -137
-117 0 -209 33 -277 98 -34 32 -38 41 -38 87 0 55 -26 120 -66 168 -24 28 -26
37 -21 89 13 143 132 286 280 334 27 9 78 13 142 11 85 -2 108 -6 155 -29z
m-765 -23 c78 -10 78 -10 56 -104 -10 -45 -21 -84 -24 -87 -2 -3 -25 0 -51 7
-94 23 -196 -3 -196 -51 0 -28 31 -48 152 -95 126 -50 200 -103 224 -162 46
-109 -23 -245 -155 -306 -39 -18 -64 -21 -166 -21 -103 0 -132 4 -200 27 -44
15 -86 31 -92 35 -10 6 -6 29 16 95 16 49 31 90 33 93 3 2 36 -10 74 -27 127
-58 245 -45 252 27 4 43 -19 59 -145 105 -123 45 -168 76 -200 139 -75 146 34
299 233 329 58 9 87 8 189 -4z m-603 -32 c15 -7 44 -27 63 -44 l35 -31 -56
-107 c-31 -58 -59 -108 -61 -110 -2 -3 -17 3 -32 12 -16 9 -37 17 -46 17 -32
0 -76 -35 -96 -78 -21 -42 -21 -49 -10 -211 6 -93 11 -189 11 -213 l0 -45
-111 -13 c-61 -6 -112 -10 -113 -8 -9 10 -15 118 -6 118 5 0 13 11 16 26 5 18
0 32 -16 49 -20 21 -28 58 -61 287 -21 145 -38 275 -39 290 0 25 3 27 93 43
50 9 100 17 111 18 15 2 22 -12 37 -77 11 -44 21 -82 24 -84 2 -3 13 16 24 41
11 25 36 64 56 86 54 60 107 70 177 34z m-1356 -158 c-18 -72 -71 -281 -116
-465 -45 -184 -87 -355 -94 -380 l-12 -45 -104 -16 c-58 -9 -108 -14 -111 -10
-4 3 -23 49 -42 101 -32 86 -152 370 -302 714 -30 71 -54 130 -52 132 6 7 266
58 270 53 3 -2 50 -125 107 -274 127 -335 120 -321 136 -270 7 22 38 148 69
280 68 288 67 287 86 296 28 15 194 35 197 24 1 -6 -13 -69 -32 -140z m-2101
-53 c4 -87 10 -173 14 -191 l6 -33 119 148 c65 82 122 149 126 149 12 0 209
-169 210 -180 0 -5 -59 -73 -132 -150 -72 -77 -145 -155 -161 -172 l-30 -32
162 -80 c157 -76 164 -81 191 -128 30 -52 95 -116 137 -136 23 -10 25 -15 19
-56 -3 -24 -8 -47 -11 -50 -8 -7 -469 228 -559 286 -21 14 -42 21 -47 16 -4
-4 -2 -84 5 -178 7 -93 12 -171 11 -173 -1 -1 -48 -10 -104 -20 -71 -13 -104
-15 -106 -8 -2 6 -8 56 -14 111 -8 80 -7 111 5 155 28 107 14 222 -39 327 -15
29 -27 67 -27 85 0 18 -5 91 -11 161 l-12 128 -38 -6 c-35 -6 -39 -4 -44 18
-14 54 -7 59 145 114 80 28 152 52 161 52 14 1 17 -20 24 -157z m-1239 107
c87 -26 138 -56 191 -111 171 -176 89 -456 -197 -668 l-68 -50 35 -118 c87
-288 101 -337 94 -344 -9 -10 -224 -88 -229 -83 -4 4 -83 180 -294 655 -72
162 -132 297 -135 299 -2 3 -28 -7 -59 -22 -30 -15 -59 -25 -64 -22 -5 3 -41
62 -80 132 l-72 126 24 19 c37 29 236 124 311 148 193 63 414 78 543 39z
m3944 -41 c30 -14 75 -43 99 -65 l45 -40 -57 -74 c-30 -41 -103 -127 -161
-193 -58 -65 -103 -122 -100 -127 9 -15 83 -10 120 7 19 9 57 37 85 61 l49 45
70 -72 c39 -40 70 -76 70 -79 0 -12 -63 -67 -123 -109 -90 -63 -172 -87 -292
-87 -87 0 -107 3 -157 27 -113 53 -184 148 -209 282 -27 146 63 325 199 399
115 63 259 73 362 25z m-1588 -102 c31 -16 75 -48 98 -71 l42 -43 -48 -64
c-26 -34 -101 -122 -166 -195 -65 -73 -118 -135 -118 -138 0 -11 93 -4 128 10
20 9 58 37 84 62 l48 47 79 -77 79 -77 -55 -50 c-112 -102 -301 -163 -439
-141 -210 32 -332 184 -323 400 8 168 127 306 309 358 26 7 82 12 135 10 75
-3 100 -8 147 -31z m-1489 -177 c4 -16 2 -19 -11 -14 -9 4 -25 10 -34 12 -28
8 -21 20 11 21 21 0 30 -5 34 -19z m3222 -29 c3 -5 1 -10 -4 -10 -6 0 -11 5
-11 10 0 6 2 10 4 10 3 0 8 -4 11 -10z m-3295 -55 c80 -28 138 -79 173 -153
29 -60 32 -77 32 -157 0 -82 -3 -97 -32 -156 -64 -130 -160 -207 -294 -235
-113 -24 -216 -1 -291 65 -145 128 -139 380 14 532 112 112 262 151 398 104z
m1753 -105 c-2 -3 -16 8 -29 24 -21 23 -23 31 -12 43 11 13 15 10 30 -23 9
-21 14 -41 11 -44z m-916 -56 c-6 -7 -57 18 -57 27 0 4 12 22 28 40 l27 33 3
-48 c2 -27 1 -50 -1 -52z"/>
<path d="M8125 5438 c-79 -28 -135 -106 -135 -188 0 -47 29 -117 59 -144 17
-16 24 -10 140 135 117 145 121 152 105 170 -31 35 -111 47 -169 27z m19 -130
c-21 -36 -46 -68 -55 -68 -17 0 -9 31 16 55 25 26 51 34 39 13z"/>
<path d="M2097 5128 c-22 -8 -26 -14 -22 -31 31 -107 121 -367 128 -367 20 0
101 66 137 111 82 103 62 227 -43 278 -48 23 -149 28 -200 9z m151 -144 c25
-17 30 -65 9 -83 -11 -9 -16 -2 -26 30 -7 23 -15 47 -18 55 -7 18 7 18 35 -2z"/>
<path d="M6032 5250 c-53 -13 -108 -55 -131 -102 -23 -49 -28 -135 -10 -171
14 -26 60 -77 70 -77 14 0 230 300 223 311 -8 14 -84 49 -104 48 -8 -1 -30 -5
-48 -9z m-13 -167 c-12 -21 -28 -45 -36 -53 -11 -12 -13 -10 -13 15 0 35 7 47
35 63 34 19 37 13 14 -25z"/>
<path d="M4395 5136 c-44 -19 -102 -88 -115 -137 -18 -68 2 -140 53 -187 l25
-24 122 153 c116 144 122 153 104 167 -55 41 -132 53 -189 28z m58 -129 c-23
-38 -69 -97 -76 -97 -5 0 -7 19 -5 42 2 34 8 45 28 55 34 17 63 17 53 0z"/>
<path d="M2947 4936 c-50 -14 -99 -53 -123 -98 -37 -71 2 -167 85 -210 91 -48
189 -29 247 47 35 46 46 146 20 180 -15 19 -15 19 -16 -13 0 -39 -55 -102 -88
-102 -117 0 -175 92 -101 161 17 16 35 29 40 29 5 0 9 5 9 10 0 13 -13 12 -73
-4z"/>
<path d="M5164 6148 c-38 -41 -178 -209 -188 -225 -5 -9 5 -19 28 -30 20 -9
36 -22 36 -29 0 -7 -16 -50 -35 -95 -40 -96 -42 -109 -16 -102 41 11 251 239
251 273 0 4 -16 11 -35 14 -19 4 -35 12 -35 19 0 7 11 48 25 92 14 44 25 88
25 98 0 26 -23 20 -56 -15z m1 -39 c-4 -12 -15 -50 -25 -85 l-19 -64 45 -11
45 -12 -63 -65 c-94 -98 -144 -143 -129 -113 7 12 23 52 36 86 l23 64 -35 8
c-19 4 -35 11 -36 15 -2 7 153 198 161 198 2 0 0 -9 -3 -21z"/>
<path d="M8220 6161 c-5 -11 -30 -34 -55 -52 -24 -17 -55 -48 -68 -68 -23 -36
-60 -121 -55 -126 2 -2 16 -1 31 2 21 4 37 19 58 54 17 26 46 58 65 70 48 30
67 61 59 98 -8 39 -21 47 -35 22z"/>
<path d="M6876 6005 c-16 -67 -41 -122 -92 -198 -30 -44 -54 -81 -54 -82 0 -2
18 -5 39 -7 38 -3 41 -1 72 47 37 56 69 137 68 175 0 14 -6 41 -14 60 l-13 35
-6 -30z"/>
<path d="M6338 5900 c-159 -19 -489 -128 -496 -165 -2 -9 4 -25 13 -35 16 -17
19 -17 100 16 177 71 363 117 510 127 32 2 41 6 43 24 2 14 -3 23 -15 26 -42
12 -92 14 -155 7z"/>
<path d="M7088 5854 c16 -30 85 -90 131 -114 41 -21 111 -27 111 -10 0 12 -33
30 -57 30 -30 0 -116 45 -158 81 -27 24 -35 28 -27 13z"/>
<path d="M8598 5651 c27 -22 65 -63 83 -92 28 -42 35 -48 37 -31 2 12 -6 42
-17 67 -17 38 -29 50 -73 70 -77 36 -87 31 -30 -14z"/>
<path d="M9211 5630 c-3 -155 -86 -299 -316 -547 -52 -56 -95 -107 -95 -115 0
-18 -44 -83 -94 -138 -94 -104 -193 -171 -296 -201 -25 -7 -67 -28 -95 -46
-27 -19 -71 -48 -97 -66 -43 -29 -48 -36 -48 -71 0 -47 0 -47 120 34 57 38
119 70 172 88 46 15 109 45 141 66 72 48 169 153 201 219 14 28 70 98 125 156
54 58 112 122 130 142 56 65 141 211 161 277 23 75 26 192 5 237 -13 29 -13
28 -14 -35z"/>
<path d="M5887 5571 c-3 -14 0 -21 9 -21 16 0 18 9 5 28 -6 10 -10 9 -14 -7z"/>
<path d="M1220 5076 c0 -30 230 -436 257 -453 17 -11 36 -14 72 -9 l48 6 79
-177 c260 -591 300 -677 326 -696 46 -35 97 -27 283 42 277 103 276 103 289
211 l7 55 -20 -35 c-10 -19 -30 -45 -43 -57 -32 -30 -421 -173 -470 -173 -65
0 -87 32 -188 265 -50 116 -132 306 -183 422 l-92 213 -50 -6 c-71 -9 -86 7
-201 216 -104 188 -114 204 -114 176z"/>
<path d="M7860 4625 c-29 -30 -52 -56 -49 -58 2 -1 28 23 58 55 69 73 63 76
-9 3z"/>
<path d="M7776 4611 c-15 -16 -16 -25 -8 -48 10 -26 10 -26 11 -5 1 13 6 32
12 44 15 27 6 32 -15 9z"/>
<path d="M6982 4570 c-24 -53 -66 -69 -254 -96 -95 -13 -190 -24 -211 -24 -42
0 -91 21 -105 45 -7 13 -19 10 -84 -20 -228 -105 -484 -83 -643 56 -18 16 -36
26 -38 21 -3 -4 -17 -55 -32 -112 -27 -107 -46 -139 -95 -165 -14 -7 -107 -27
-206 -44 -195 -35 -183 -35 -267 7 -15 7 20 -52 41 -71 11 -10 38 -21 59 -24
37 -4 317 38 379 58 53 17 73 48 105 170 17 63 33 117 37 121 4 4 27 -9 52
-28 178 -137 399 -156 631 -52 l68 30 30 -25 c17 -14 44 -28 60 -32 38 -8 396
42 433 61 24 13 61 57 71 87 1 5 50 -7 108 -26 159 -54 257 -71 366 -64 50 3
99 10 109 15 15 8 49 72 39 72 -2 0 -30 -7 -62 -15 -123 -32 -291 -14 -472 51
-53 19 -98 34 -101 34 -3 0 -11 -13 -18 -30z"/>
<path d="M7705 4498 c-14 -29 -27 -67 -31 -84 -6 -34 -3 -31 -179 -132 -836
-477 -2085 -883 -3175 -1031 -236 -32 -444 -44 -658 -38 -221 6 -330 22 -454
67 -329 120 -340 401 -31 756 58 67 64 77 51 90 -13 13 -21 9 -66 -41 -68 -74
-174 -234 -205 -310 -53 -129 -57 -222 -13 -320 43 -95 111 -153 238 -206 280
-115 774 -111 1488 12 115 20 176 27 178 20 2 -6 8 -9 13 -5 5 3 8 0 7 -8 -4
-18 -17 -21 -293 -77 -378 -78 -680 -117 -975 -127 -384 -13 -653 48 -783 178
-74 74 -77 90 -18 120 81 42 118 125 89 205 -14 37 -13 43 1 57 14 15 13 16
-7 16 -26 0 -27 -9 -7 -74 17 -56 10 -97 -25 -146 -27 -37 -88 -70 -132 -70
-18 0 -28 -4 -22 -8 6 -4 23 -31 39 -60 157 -292 824 -341 1835 -137 1116 225
2244 625 3045 1078 l80 46 31 -35 c18 -19 48 -41 68 -49 41 -18 116 -20 116
-4 0 6 -7 8 -16 5 -24 -9 -89 11 -122 39 -17 14 -35 25 -42 25 -6 0 -20 20
-30 44 -24 53 -19 114 15 199 28 71 22 75 -10 5z m-2425 -1118 c0 -5 -4 -11
-10 -11 -5 -1 -14 -2 -19 -3 -5 0 -13 -4 -17 -8 -4 -5 -18 -8 -30 -8 -12 0
-30 -7 -39 -16 -8 -9 -22 -14 -29 -11 -7 3 -18 1 -24 -5 -7 -7 -17 -6 -33 3
-23 12 -20 14 46 30 39 10 78 16 88 13 9 -3 17 -1 17 5 0 8 16 16 43 20 4 0 7
-3 7 -9z"/>
<path d="M7792 4534 c-7 -8 -8 -14 -3 -14 10 0 25 19 20 25 -2 1 -10 -3 -17
-11z"/>
<path d="M4897 4461 c-106 -80 -278 -144 -425 -156 l-81 -8 -16 -51 c-17 -56
-28 -74 -65 -99 -50 -35 -94 -24 -306 78 l-198 95 -12 -56 c-7 -38 -20 -64
-40 -85 -27 -27 -44 -32 -229 -64 -228 -41 -213 -32 -331 -179 -133 -165 -192
-337 -149 -431 7 -16 14 -25 14 -20 15 146 104 316 252 478 l44 49 185 33
c101 19 197 40 213 46 35 15 54 50 63 117 3 29 8 52 10 52 2 0 91 -43 197 -96
203 -102 245 -114 300 -85 29 16 77 101 77 138 0 21 4 23 53 23 128 0 273 41
385 109 106 64 125 82 117 114 -4 15 -10 27 -14 27 -3 0 -23 -13 -44 -29z"/>
<path d="M8081 4382 c-2 -39 -31 -96 -68 -134 -20 -21 -34 -40 -31 -43 3 -4
22 9 41 29 36 36 72 122 64 153 -4 14 -5 12 -6 -5z"/>
<path d="M8170 4369 c0 -41 -28 -111 -65 -161 -88 -120 -273 -153 -390 -69
l-40 29 -80 -45 c-668 -369 -1545 -700 -2483 -937 -934 -236 -1629 -301 -2057
-195 -106 27 -249 97 -308 151 -53 50 -61 48 -18 -5 87 -110 223 -179 453
-229 122 -26 474 -36 685 -19 675 55 1643 287 2498 598 398 144 905 371 1218
545 l128 71 23 -22 c33 -31 118 -61 174 -61 109 0 219 72 262 171 23 56 30
173 10 193 -7 7 -10 2 -10 -15z"/>
<path d="M2561 4160 c18 -51 106 -106 216 -134 34 -9 71 -16 84 -16 21 0 79
44 79 61 0 4 -44 8 -97 11 -84 3 -107 8 -166 36 -38 17 -81 41 -97 52 l-29 21
10 -31z"/>
<path d="M2575 3609 c-4 -6 -5 -12 -2 -15 2 -3 7 2 10 11 7 17 1 20 -8 4z"/>
<path d="M2555 3550 c-4 -17 -5 -34 -2 -36 2 -3 7 10 11 27 8 42 0 50 -9 9z"/>
<path d="M2469 3321 c6 -10 24 -30 41 -45 29 -24 49 -30 127 -39 31 -3 31 -3
18 23 -12 23 -23 28 -66 33 -28 4 -69 16 -91 27 -37 19 -38 19 -29 1z"/>
</g>
</svg>
